# xmcd
#
# Track frame offsets:
# 150
# 12157
# 23654
# 36896
# 55595
# 72939
# 94317
# 105923
# 135807
# 171687
# 187800
# 204302
# 215267
# 227316
# 264229
#
# Disc length: 3887 seconds
#
#
# Revision: 0
# Processed by: cddbd v1.5.1PL2 Copyright (c) Steve Scherf et al.
# Submitted via: FreeRIP 2.945 
#
DISCID=b40f2d0f
DTITLE=Blue Devils - Blue Devils Alumni and Friends
DYEAR=2004
DGENRE=Drum Corps
TTITLE0=Dindi
TTITLE1=La Fiesta
TTITLE2=Vibe
TTITLE3=Open Up Wide
TTITLE4=Pegasus
TTITLE5=Ataca
TTITLE6=Overland
TTITLE7=Interboro Boogie
TTITLE8=Sonate for Solo Cello, Opus 8 - Allegro Maestoso ma Appassionata
TTITLE9=Jack Palance the Ninja
TTITLE10=One More Time, Chuck Corea
TTITLE11=My Spanish Heart
TTITLE12=Kansas Blue Horn
TTITLE13=Channel One Suite
TTITLE14=Everybody Loves the Blues
EXTD=
EXTT0=
EXTT1=
EXTT2=
EXTT3=
EXTT4=
EXTT5=
EXTT6=
EXTT7=
EXTT8=
EXTT9=
EXTT10=
EXTT11=
EXTT12=
EXTT13=
EXTT14=
PLAYORDER=
